<svg fill="none" height="32" viewBox="0 0 216 32" width="216" xmlns="http://www.w3.org/2000/svg"><g fill="#595964"><path d="m36 6.25145c0-1.53743.072-1.61063 1.5838-1.61063h3.0236c.9359-.07321 1.2959.36605 1.2959 1.31779-.072 1.75705 0 3.51411 0 5.27119 0 1.6106.072 1.6838 1.7278 1.6838h4.3195c1.7278 0 1.7278-.0732 1.7278-1.9035v-5.05149c0-.95174.2879-1.24458 1.2238-1.31779 4.6794-.29284 4.6794-.36606 4.6794 4.24621v15.22777c0 2.782.144 2.416-2.5197 2.416-.7199 0-1.4398-.0732-2.1597 0-.9359.0732-1.2958-.2928-1.2238-1.2446.0719-1.9035 0-3.8069 0-5.7104 0-1.0982-.36-1.391-1.3679-1.391-1.6558.0732-3.3116.0732-4.9674 0-1.2238-.0732-1.5118.5125-1.4398 1.5374.072 1.8303 0 3.6605 0 5.4908 0 .8785-.216 1.391-1.2239 1.3178-1.1518-.0732-2.3037-.0732-3.4555 0-1.0079.0732-1.2239-.4393-1.2239-1.3178zm53.5615 18.15625c-1.1518 1.0981-2.0877 1.9035-3.4555 2.2695-3.5276.8786-6.3353-1.0249-6.9112-4.6855-.36-2.4159-.144-4.8319-.216-7.2478v-3.9534c0-.7321.36-1.09815 1.0079-1.09815h.216c4.6074-.43927 4.6074-.43927 4.6074 4.31945 0 1.6106-.072 3.2212 0 4.8319.072 1.8302 1.0079 2.8552 2.3757 2.8552 1.3679 0 2.3758-1.025 2.4477-2.8552.072-2.3428 0-4.6855.072-7.0282 0-2.04994 0-2.04994 1.9438-2.12315 3.7435-.07321 3.7436-.07321 3.7436 3.80695v11.2012c0 1.7571-.0001 1.7571-1.7998 1.7571h-1.9438c-1.7998.0732-1.7998.0732-2.0878-2.0499zm108.4185-14.71535h4.896c.936 0 1.152.65885 1.44 1.31775.72 2.1232 1.44 4.3195 2.087 6.4426.216.6589.36 1.2446.792 1.9035 1.008-2.2696 1.512-4.6123 2.304-6.8818.216-.5857.36-1.2446.576-1.9035.216-.65892.648-.95176 1.296-.95176h4.391c.504.73206.072 1.17136-.072 1.61066-1.799 4.9783-3.599 9.8834-5.471 14.8617-.144.3661-.288.6589-.432 1.025-1.872 4.3194-6.335 5.7836-10.367 3.3677-.288-.2197-.72-.3661-.576-.8053.432-1.0982.936-2.1232 1.368-3.2213.144-.2929.432-.2929.72-.1464.36.1464.648.2196 1.008.366.72.2929 1.44.3661 2.016-.2928.504-.5857 0-1.0982-.216-1.6107-1.728-4.4658-3.456-8.8584-5.184-13.2511-.144-.5125-.288-1.0249-.576-1.83025zm-92.868 17.20445c-2.232-.1464-4.32-.5856-6.2636-1.6838-1.3678-.8053-1.3678-.8053-.5759-2.1231.072-.1464.144-.2196.216-.3661 1.0798-1.757 1.0798-1.757 2.8795-.8785 1.152.5125 2.304.8785 3.528.8785.72 0 1.584.2197 1.727-.8053.144-.8053-.647-1.0249-1.295-1.2446-.72-.2928-1.512-.5124-2.232-.7321-.648-.2196-1.368-.5124-2.016-.8053-1.9436-.8053-2.8795-2.2695-2.8075-4.4658s1.1519-3.7338 3.0235-4.68551c1.8-.87852 3.672-.80531 5.543-.58568.792.07321 1.584.36605 2.304.58568 2.664.87851 2.664 1.09821 1.296 3.58731-.576 1.025-1.08 1.1714-2.016.6589s-2.015-.8053-3.095-.8785c-.648-.0732-1.44-.0732-1.656.6589-.288.8785.576 1.0981 1.152 1.3178 1.512.5857 3.023.8785 4.463 1.6838 2.376 1.3178 3.168 2.9284 2.592 5.6372-.36 1.6107-1.296 2.7088-2.808 3.4409-1.296.6589-2.591.8053-3.959.8053zm91.357-5.1979c.216.8053.144 1.6838.144 2.5624 0 1.757-.144 1.9034-1.728 2.2695-.792.1464-1.584.366-2.376.2928-3.671-.0732-5.399-1.757-5.471-5.6372-.072-1.8302 0-3.6605 0-5.4908 0-.8053-.072-1.4642-1.08-1.4642-.504 0-.792-.366-.792-.8053v-2.8552c0-.3661.144-.80534.576-.80534 1.296 0 1.296-.80531 1.296-1.75705.072-2.63559.072-2.63559 2.663-2.63559 2.88 0 2.88 0 3.024 2.78201.072 1.17137.432 1.61063 1.584 1.53742h1.296c.72 0 1.08.29284 1.008 1.09815v.8785c.072 2.4892.072 2.5624-2.304 2.6356-1.08 0-1.584.3661-1.584 1.5374.072 1.2446 0 2.4892 0 3.7338.072 2.0499.504 2.3427 2.592 2.1963.36-.0732.72-.2928 1.152-.0732zm-18.07-8.9317c1.296-2.0499 2.592-3.4409 4.967-3.29448.36 1.75708.144 3.51408.216 5.19798 0 .6589-.432.8053-.936.9517-3.383 1.025-4.247 2.1231-4.319 5.7836 0 1.3178-.072 2.6356 0 3.9534 0 .8053-.288 1.0982-1.152 1.1714-4.607.366-4.607.3661-4.607-4.2462v-10.3227c0-2.19634 0-2.19634 2.303-2.26955h.864c2.448 0 2.448 0 2.664 3.07485zm-27.861.5125c-1.368-2.8552-4.103-4.24624-7.127-3.88019-1.512.14642-2.664 1.09819-4.175 2.34269.216-1.6106-.36-2.19627-1.656-1.97664-.936.07321-1.872.07321-2.808 0s-1.296.36604-1.224 1.31784v19.1811c0 .8786.288 1.391 1.224 1.3178 1.08-.0732 2.16-.0732 3.24 0 .936.0732 1.296-.366 1.224-1.3178-.072-1.757 0-3.4409 0-5.1979.647-.0732.863.2196 1.151.4393 3.816 2.6355 8.423 1.391 10.367-2.8553 1.296-3.148 1.296-6.2961-.216-9.3709zm-7.919 8.6388c-1.944 0-3.383-1.6106-3.455-3.7337-.072-2.1963 1.367-3.8802 3.239-3.9534 1.944-.0732 3.6 1.6839 3.6 3.8802 0 2.1231-1.512 3.8069-3.384 3.8069zm-75.0148-12.59221c-3.3836 0-6.3352 1.68381-7.919 4.46581-2.5197 4.3927-.792 9.9567 3.7435 12.153 4.9674 2.416 11.0147.1464 12.8145-4.9051 2.1597-5.8569-2.1598-11.71371-8.639-11.71371zm.072 12.59221c-2.0158 0-3.5996-1.8302-3.5276-3.9533.072-2.0499 1.7278-3.7338 3.5996-3.7338 2.0157.0732 3.5276 1.8303 3.4556 4.0266-.072 2.1231-1.5839 3.6605-3.5276 3.6605zm101.8678-6.4425c-.144-2.9284-1.872-4.9051-4.68-5.63723-2.375-.65889-4.751-.58568-7.055 0-3.527.87853-2.951.51243-2.159 3.66053.288 1.025.648 1.2446 1.655.9517 1.44-.4392 2.952-.8053 4.464-.366 1.512.366 1.8.8053 2.088 2.8552-2.52-.5857-4.752-.7321-7.056 0-2.159.6589-3.239 2.3427-3.311 4.6123-.072 2.4159.936 4.0266 3.023 4.8319 2.016.7321 3.96.7321 5.832-.3661.504-.2928.792-.8785 1.584-.8053-.144.8053.072 1.391 1.079 1.3178 1.152-.0732 2.304-.0732 3.456 0 .864 0 1.152-.3661 1.08-1.1714.072-3.2945.144-6.5889 0-9.8834zm-8.423 7.6871c-1.368 0-2.088-.8053-2.016-1.9767.072-1.2446 1.152-2.0499 2.808-2.0499 1.584 0 2.16.4393 2.088 1.4642-.072 1.5375-1.296 2.6356-2.88 2.5624zm-38.731-3.5141h7.127c.72 0 1.296-.1464 1.296-1.0982-.072-6.955-4.752-10.39588-10.583-8.93166-3.6.87856-5.975 4.09976-6.119 8.12636-.216 3.8802 2.015 7.3211 5.543 8.5657 3.815 1.391 7.991.2928 10.511-3.0749-.216-.1464-.504-.2196-.72-.366-1.296-1.1714-2.304-2.1964-4.32-.8053-2.015 1.391-4.247.2928-5.183-2.1964.864-.366 1.656-.2196 2.448-.2196zm-2.808-2.8552c.504-1.9035 1.152-3.0017 2.736-3.0749 1.223-.0732 2.231.5125 2.735 1.6839.432.9517.288 1.3178-.792 1.391z"/><path d="m7.98156 31.4715c-.04406.3915-.30842.5655-.74901.522-.35248-.0435-.6609-.2175-.96932-.435-2.55546-1.6094-4.49408-3.7408-5.903992-6.3941-.08812-.174-.132182-.348-.220301-.4785-.2202983-.4785-.2202979-.87.308418-1.0875.484657-.1739.704955.174.881195.5655.96931 2.1314 2.42328 3.8278 4.18567 5.3067.57277.4785 1.18961.87 1.8505 1.2614.35248.1305.61684.348.61684.7395zm15.28874-27.05546c-.0441.34798-.1322.56547-.3966.69596-.2203.08699-.4406 0-.6168-.13049-.1322-.1305-.2203-.26099-.3525-.39148-1.0134-1.39192-2.2911-2.52286-3.8772-3.26232-.4406-.17399-.8372-.434972-.5728-.956942.2644-.521971.6609-.3914779 1.1455-.217488 1.8505.826453 3.3045 2.13138 4.4501 3.78429.0881.13049.1322.34798.2203.47847zm5.0668 7.87306c-.1321-1.0439-.3965-2.0444-.8812-3.00134-.8812-1.60941-2.5554-2.34887-4.3619-1.91389-1.0133.21749-1.7624.82645-2.5114 1.60941-.8371-1.13094-1.5861-2.17488-2.3351-3.17532-.7931-1.04394-1.7184-1.87039-2.8639-2.47936-1.1456-.60897-2.3352-.82645-3.5688-.26099-.5288.26099-.8812.087-1.3659-.13049-2.64358-1.13093-5.28716.21749-5.85994 3.00133-.08812.47847-.26435.78296-.66089 1.04394-1.36585.86995-1.98269 2.17488-1.93863 3.78431 0 .3045.08812.6089-.13218.8699-1.542085 1.6094-1.365847 3.4798-.52871 5.2632 1.76238 3.7843 3.96537 7.3076 7.18173 10.0915 2.02672 1.7399 4.31782 2.9143 7.04952 3.0448 5.1991.3045 10.0897-2.9144 11.9402-7.6991 1.1896-3.2623 1.3659-6.6116.8371-10.0479zm-3.4366 9.2215c-1.6302 4.5672-8.4154 8.3515-14.011 4.0017-1.01338-.7829-1.93863-1.6529-2.77576-2.6533-1.58615-2.0009-2.952-4.1323-4.09755-6.3941-.35248-.6525-.57278-1.392-.48466-2.1314.08812-.957.70496-1.2615 1.54209-.783.39654.2175.6609.5655.92526.9135 1.05743 1.3484 2.0708 2.6968 3.12823 4.0887.17624.261.39654.4785.61684.696.13218.1305.35245.1305.48465 0s.2203-.3045.1322-.4785c-.1763-.3045-.3525-.6089-.5728-.8699-1.40991-1.9574-2.81981-3.9148-4.27378-5.8722-.17624-.261-.39654-.4785-.52872-.7395-.44059-.7829-.30842-1.52237.35248-2.00084.61683-.43497 1.45397-.34798 2.0708.21749.26436.26098.4406.52195.6609.82645 1.05743 1.3919 2.07082 2.8273 3.17232 4.2193.3525.4784.6609 1.5224 1.3218 1.0874.5727-.348-.3085-1.0439-.6169-1.5224-1.2777-2.0009-2.64355-3.9583-3.92128-5.91568-.17624-.26098-.35248-.52197-.48466-.78295-.39653-.82646-.26436-1.52242.39654-1.95739.66089-.43498 1.40991-.39148 2.02674.26098.26436.26099.44056.56547.61686.82646l4.3619 6.26368c.1762.2609.3525.5219.5287.7394s.3965.3915.6609.174c.2203-.174.0881-.3915-.0441-.5655-.9693-1.6529-1.9826-3.30577-2.952-4.95868-.2643-.43497-.5287-.91345-.7049-1.39192-.1763-.39148-.1763-.78295.1322-1.08744.3524-.39147.793-.34798 1.2336-.17399.4406.1305.7931.39148 1.1015.69596.6609.56547 1.2337 1.26143 1.7624 1.95739 1.1015 1.47892 2.0708 3.04478 3.0842 4.61078.2203.3479.4847.7394.7931 1.0439.4846.4785.8371.3915 1.1015-.2175.1321-.348.1762-.7394.3084-1.1309.2203-.696.4406-1.4354.9693-1.9574.8812-.86996 1.8064-.69597 2.3352.3915.4406.9134.4846 1.9574.5727 2.9578.0441.609 0 1.2179 0 1.8269.1322 1.9574-.2643 3.8713-.9252 5.7852z"/><path d="m17.5862 15.7689c-.3525-.174-.6169 0-.8372.2175-1.3658 1.0439-2.4233 2.3054-3.3485 3.6973-.2203.348-.4406.6524-.5728 1.0004-.1322.261-.0881.522.1763.696.3084.2175.5727.174.8371-.0435.1322-.087.2203-.261.3084-.435.9253-1.4354 1.9827-2.7838 3.3485-3.8713.2644-.174.4406-.4349.4406-.7394-.044-.2175-.1321-.435-.3524-.522zm4.0975 5.0022c-.4847-1.2179-.8371-2.4793-.9693-3.7843-.0441-.3044-.0881-.6089-.1762-.9134-.0882-.261-.3085-.435-.6169-.3915-.5287.1305-.5728.5655-.5728 1.0005.0882 1.6529.5288 3.2623 1.1897 4.7847.0881.174.1762.3045.2643.435.1763.2174.3966.3044.705.2174.2643-.1305.3965-.3479.3965-.6089-.0441-.2175-.1322-.4785-.2203-.7395z"/></g></svg>